<svg xmlns="http://www.w3.org/2000/svg" viewBox="0 0 120 120" fill="none" role="img" aria-label="Youth Huza">
  <defs>
    <linearGradient id="yh-leaf" x1="20" y1="10" x2="100" y2="110" gradientUnits="userSpaceOnUse">
      <stop stop-color="#1FA65A"/>
      <stop offset="1" stop-color="#0B5C34"/>
    </linearGradient>
    <linearGradient id="yh-gold" x1="60" y1="70" x2="95" y2="105" gradientUnits="userSpaceOnUse">
      <stop stop-color="#F5C542"/>
      <stop offset="1" stop-color="#D4920A"/>
    </linearGradient>
  </defs>
  <circle cx="60" cy="60" r="56" fill="#0B5C34"/>
  <circle cx="60" cy="60" r="50" fill="url(#yh-leaf)"/>
  <!-- Linked arcs = Huza (connect/join) -->
  <path d="M34 48c0-10 8-18 18-18h4c8 0 14 5 16 12 2-7 8-12 16-12h4c10 0 18 8 18 18v8c0 4-3 7-7 7h-6c-4 0-7-3-7-7v-6c0-4-3-7-7-7h-2c-4 0-7 3-7 7v28c0 4-3 7-7 7h-6c-4 0-7-3-7-7V48z" fill="#F7FBF8"/>
  <path d="M52 78c8 10 20 14 32 10" stroke="url(#yh-gold)" stroke-width="6" stroke-linecap="round"/>
  <circle cx="86" cy="86" r="8" fill="url(#yh-gold)"/>
</svg>
