<svg xmlns="http://www.w3.org/2000/svg" viewBox="0 0 280 72" fill="none" role="img" aria-label="HUZA FRESH — Powered by Youth Huza">
  <defs>
    <linearGradient id="mark-leaf" x1="20" y1="4" x2="55" y2="40" gradientUnits="userSpaceOnUse">
      <stop stop-color="#7ED957"/>
      <stop offset="1" stop-color="#1FA65A"/>
    </linearGradient>
    <linearGradient id="mark-hand" x1="8" y1="48" x2="52" y2="58" gradientUnits="userSpaceOnUse">
      <stop stop-color="#F5A524"/>
      <stop offset="1" stop-color="#E86B1A"/>
    </linearGradient>
    <linearGradient id="mark-arc" x1="6" y1="10" x2="38" y2="54" gradientUnits="userSpaceOnUse">
      <stop stop-color="#0B5C34"/>
      <stop offset="1" stop-color="#1FA65A"/>
    </linearGradient>
  </defs>
  <g transform="translate(4 4)">
    <path d="M18 50C10 42 9 28 16 18C23 8 38 5 48 12" stroke="url(#mark-arc)" stroke-width="5" stroke-linecap="round"/>
    <circle cx="32" cy="16" r="4.2" fill="#0B5C34"/>
    <path d="M32 21c0 0-1.5 6-1.5 11.5S32 46 32 46" stroke="#0B5C34" stroke-width="4.5" stroke-linecap="round"/>
    <path d="M32 24c-7-2-12-1-16 4" stroke="#0B5C34" stroke-width="4.2" stroke-linecap="round"/>
    <path d="M32 24c6-1 11 1 14 6" stroke="#0B5C34" stroke-width="4.2" stroke-linecap="round"/>
    <path d="M44 28c8-2 14-10 14-16-8 1-14 7-16 14z" fill="url(#mark-leaf)"/>
    <circle cx="28" cy="42" r="5.2" fill="#F97316"/>
    <ellipse cx="36.5" cy="41" rx="3.2" ry="4.4" fill="#1FA65A"/>
    <path d="M40 44c2.5-1 5 .5 6.5 3" stroke="#E86B1A" stroke-width="3" stroke-linecap="round"/>
    <path d="M14 48c6 8 18 11 30 8 4-1 7-3 9-6" stroke="url(#mark-hand)" stroke-width="6" stroke-linecap="round"/>
  </g>
  <text x="78" y="34" font-family="Arial Black, Arial, Helvetica, sans-serif" font-size="24" font-weight="800" letter-spacing="-0.5">
    <tspan fill="#0B5C34">HUZA</tspan><tspan dx="6" fill="#E86B1A">FRESH</tspan>
  </text>
  <line x1="78" y1="48" x2="98" y2="48" stroke="#0B5C34" stroke-width="1.5" opacity="0.55"/>
  <text x="140" y="52" text-anchor="middle" font-family="Arial, Helvetica, sans-serif" font-size="11" font-weight="600" fill="#0B5C34">Powered by Youth Huza.</text>
  <line x1="182" y1="48" x2="250" y2="48" stroke="#0B5C34" stroke-width="1.5" opacity="0.55"/>
</svg>
