<svg xmlns="http://www.w3.org/2000/svg" viewBox="0 0 280 72" fill="none" role="img" aria-label="Youth Huza — HUZA FRESH">
  <defs>
    <linearGradient id="mark" x1="8" y1="8" x2="64" y2="64" gradientUnits="userSpaceOnUse">
      <stop stop-color="#1FA65A"/>
      <stop offset="1" stop-color="#0B5C34"/>
    </linearGradient>
  </defs>
  <circle cx="36" cy="36" r="32" fill="url(#mark)"/>
  <path d="M20 30c0-6 5-11 11-11h2c5 0 8 3 10 7 2-4 5-7 10-7h2c6 0 11 5 11 11v4c0 2.5-2 4.5-4.5 4.5H58c-2.5 0-4.5-2-4.5-4.5v-3c0-2.5-2-4.5-4.5-4.5h-1c-2.5 0-4.5 2-4.5 4.5v16c0 2.5-2 4.5-4.5 4.5H34c-2.5 0-4.5-2-4.5-4.5V30z" fill="#F7FBF8"/>
  <path d="M32 48c5 6 12 8 19 6" stroke="#F5C542" stroke-width="4" stroke-linecap="round"/>
  <circle cx="52" cy="52" r="4.5" fill="#F5C542"/>
  <text x="78" y="34" font-family="Georgia, 'Times New Roman', serif" font-size="22" font-weight="700" fill="#0B5C34">YOUTH HUZA</text>
  <text x="78" y="54" font-family="Arial, Helvetica, sans-serif" font-size="12" font-weight="600" letter-spacing="1.5" fill="#1FA65A">HUZA FRESH</text>
</svg>
