<svg xmlns="http://www.w3.org/2000/svg" viewBox="0 0 100 100" fill="none" role="img" aria-label="HUZA FRESH — Powered by Youth Huza">
  <defs>
    <linearGradient id="arc" x1="12" y1="20" x2="58" y2="70" gradientUnits="userSpaceOnUse">
      <stop stop-color="#0A4D2C"/>
      <stop offset="0.45" stop-color="#1A7A42"/>
      <stop offset="1" stop-color="#2FBE5C"/>
    </linearGradient>
    <linearGradient id="leaf" x1="52" y1="8" x2="88" y2="42" gradientUnits="userSpaceOnUse">
      <stop stop-color="#9AE66F"/>
      <stop offset="0.4" stop-color="#3CC95A"/>
      <stop offset="1" stop-color="#1B8F3E"/>
    </linearGradient>
    <linearGradient id="hand" x1="10" y1="78" x2="88" y2="52" gradientUnits="userSpaceOnUse">
      <stop stop-color="#F6B23A"/>
      <stop offset="0.4" stop-color="#F17A18"/>
      <stop offset="1" stop-color="#D94E0A"/>
    </linearGradient>
    <radialGradient id="fruit" cx="40" cy="62" r="12" gradientUnits="userSpaceOnUse">
      <stop stop-color="#FFC56A"/>
      <stop offset="0.45" stop-color="#F97316"/>
      <stop offset="1" stop-color="#D45308"/>
    </radialGradient>
    <linearGradient id="veg" x1="52" y1="48" x2="66" y2="72" gradientUnits="userSpaceOnUse">
      <stop stop-color="#7ED957"/>
      <stop offset="1" stop-color="#1FA65A"/>
    </linearGradient>
  </defs>
  <rect width="100" height="100" rx="22" fill="#F7FBF8"/>
  <path d="M24 72C12 60 11 38 22 24C32 11 52 8 68 18" stroke="url(#arc)" stroke-width="6.5" stroke-linecap="round"/>
  <circle cx="46" cy="22" r="6.8" fill="#1B8F3E"/>
  <path d="M46 30V58" stroke="#0A4D2C" stroke-width="6.8" stroke-linecap="round"/>
  <path d="M46 34C36 30 27 32 20 40" stroke="#0A4D2C" stroke-width="6.5" stroke-linecap="round"/>
  <path d="M46 34C55 31 63 34 68 42" stroke="#0A4D2C" stroke-width="6.5" stroke-linecap="round"/>
  <path d="M66 38C78 32 90 18 92 8C78 9 64 22 62 36C63.5 37 65 37.8 66 38Z" fill="url(#leaf)"/>
  <path d="M67 36C75 28 84 18 91 11" stroke="#E8FBE0" stroke-width="1.8" stroke-linecap="round" opacity="0.85"/>
  <path d="M52 52C54 44 60 40 66 42C64 48 63 56 60 62C56 60 53 56 52 52Z" fill="url(#veg)"/>
  <path d="M58 50C61 45 66 43 70 45C67 51 65 57 62 62C59 59 58 55 58 50Z" fill="#2FBE5C"/>
  <ellipse cx="70" cy="60" rx="5" ry="7" fill="#168A45"/>
  <circle cx="42" cy="62" r="11" fill="url(#fruit)"/>
  <circle cx="38.5" cy="58.5" r="3" fill="#FFE2B8" opacity="0.55"/>
  <path d="M42 51C39.8 47.8 36.2 46.5 34 47.5C36.5 50.2 39.2 51.5 42 51Z" fill="#2FBE5C"/>
  <path d="M42 51C44.5 48 48.2 47.2 50.2 48.6C47.2 50.8 44.4 51.6 42 51Z" fill="#8BE06A"/>
  <path d="M16 58C14 66 18 76 28 80C40 85 58 84 72 76C82 70 90 60 94 50C90 52 84 58 76 62C64 68 48 70 36 66C28 63 22 60 16 58Z" fill="url(#hand)"/>
  <path d="M22 62C26 70 40 76 56 72C68 69 78 62 84 54" stroke="#FFD08A" stroke-width="2.4" stroke-linecap="round" opacity="0.5"/>
</svg>
